<svg width="31" height="31" viewBox="0 0 31 31" fill="none" xmlns="http://www.w3.org/2000/svg">
    <path d="M15.5 6.75C14.4184 6.75 13.3611 7.07074 12.4617 7.67165C11.5624 8.27257 10.8615 9.12667 10.4475 10.126C10.0336 11.1252 9.92532 12.2248 10.1363 13.2857C10.3473 14.3465 10.8682 15.3209 11.633 16.0857C12.3978 16.8506 13.3723 17.3714 14.4331 17.5824C15.4939 17.7934 16.5935 17.6851 17.5928 17.2712C18.5921 16.8573 19.4462 16.1564 20.0471 15.257C20.648 14.3577 20.9688 13.3004 20.9688 12.2188C20.9688 10.7683 20.3926 9.37735 19.367 8.35176C18.3414 7.32617 16.9504 6.75 15.5 6.75Z" fill="#0E0E0E"/>
    <path d="M15.5 0C12.4715 0 9.51096 0.898063 6.99284 2.58062C4.47471 4.26318 2.51207 6.65467 1.3531 9.45266C0.194135 12.2507 -0.109104 15.3295 0.481732 18.2998C1.07257 21.2702 2.53094 23.9986 4.67243 26.1401C6.81393 28.2816 9.54235 29.7399 12.5127 30.3308C15.483 30.9216 18.5619 30.6184 21.3598 29.4594C24.1578 28.3004 26.5493 26.3378 28.2319 23.8197C29.9144 21.3015 30.8125 18.341 30.8125 15.3125C30.8079 11.2528 29.1931 7.36069 26.3225 4.49004C23.4518 1.6194 19.5597 0.00463173 15.5 0V0ZM24.2413 25.0753C24.2195 23.6407 23.6349 22.272 22.6137 21.2642C21.5924 20.2564 20.2161 19.6902 18.7813 19.6875H12.2188C10.784 19.6902 9.40764 20.2564 8.38635 21.2642C7.36507 22.272 6.78055 23.6407 6.75876 25.0753C4.77531 23.3043 3.37659 20.9725 2.74779 18.3889C2.119 15.8052 2.2898 13.0915 3.23758 10.607C4.18536 8.1226 5.8654 5.98464 8.05526 4.47624C10.2451 2.96785 12.8415 2.16018 15.5006 2.16018C18.1596 2.16018 20.756 2.96785 22.9459 4.47624C25.1357 5.98464 26.8158 8.1226 27.7635 10.607C28.7113 13.0915 28.8821 15.8052 28.2533 18.3889C27.6245 20.9725 26.2258 23.3043 24.2424 25.0753H24.2413Z" fill="#0E0E0E"/>
</svg>
