<svg width="35" height="26" viewBox="0 0 35 26" fill="none" xmlns="http://www.w3.org/2000/svg">
    <path d="M34.9305 12.5982C33.5583 9.00268 31.176 5.89327 28.0782 3.65428C24.9804 1.41529 21.3028 0.144859 17.5 0C13.6972 0.144859 10.0196 1.41529 6.92177 3.65428C3.82396 5.89327 1.44173 9.00268 0.0695056 12.5982C-0.0231685 12.8578 -0.0231685 13.1422 0.0695056 13.4018C1.44173 16.9973 3.82396 20.1067 6.92177 22.3457C10.0196 24.5847 13.6972 25.8551 17.5 26C21.3028 25.8551 24.9804 24.5847 28.0782 22.3457C31.176 20.1067 33.5583 16.9973 34.9305 13.4018C35.0232 13.1422 35.0232 12.8578 34.9305 12.5982ZM17.5 23.6364C11.3165 23.6364 4.78297 18.9918 2.41457 13C4.78297 7.00818 11.3165 2.36364 17.5 2.36364C23.6835 2.36364 30.217 7.00818 32.5854 13C30.217 18.9918 23.6835 23.6364 17.5 23.6364Z" fill="#0E0E0E"/>
    <path d="M17.5 6C16.0166 6 14.5666 6.41054 13.3332 7.17971C12.0999 7.94888 11.1386 9.04213 10.5709 10.3212C10.0032 11.6003 9.85472 13.0078 10.1441 14.3656C10.4335 15.7235 11.1478 16.9708 12.1967 17.9497C13.2456 18.9287 14.582 19.5954 16.0368 19.8655C17.4917 20.1356 18.9997 19.997 20.3701 19.4672C21.7406 18.9373 22.9119 18.0401 23.736 16.889C24.5601 15.7378 25 14.3845 25 13C25 11.1435 24.2098 9.36301 22.8033 8.05025C21.3968 6.7375 19.4891 6 17.5 6ZM17.5 17.6667C16.5111 17.6667 15.5444 17.393 14.7222 16.8802C13.8999 16.3674 13.259 15.6386 12.8806 14.7859C12.5022 13.9331 12.4031 12.9948 12.5961 12.0896C12.789 11.1843 13.2652 10.3528 13.9645 9.70017C14.6637 9.04752 15.5546 8.60307 16.5246 8.423C17.4945 8.24294 18.4998 8.33535 19.4134 8.68856C20.327 9.04177 21.1079 9.63991 21.6573 10.4073C22.2068 11.1748 22.5 12.077 22.5 13C22.5 14.2377 21.9732 15.4247 21.0355 16.2998C20.0979 17.175 18.8261 17.6667 17.5 17.6667Z" fill="#0E0E0E"/>
</svg>

